<svg xmlns="http://www.w3.org/2000/svg" viewBox="0 0 100 100">
  <defs>
    <linearGradient id="bodyGrad" x1="15%" y1="0%" x2="85%" y2="100%">
      <stop offset="0%" stop-color="#4d4a49"/>
      <stop offset="52%" stop-color="#121212"/>
      <stop offset="100%" stop-color="#4d4a49"/>
    </linearGradient>
    <linearGradient id="bronzeGrad" x1="0%" y1="0%" x2="100%" y2="100%">
      <stop offset="0%" stop-color="#f0c68e"/>
      <stop offset="45%" stop-color="#b47333"/>
      <stop offset="100%" stop-color="#f3d1a1"/>
    </linearGradient>
    <linearGradient id="baseGrad" x1="0%" y1="0%" x2="100%" y2="0%">
      <stop offset="0%" stop-color="#6b4424"/>
      <stop offset="50%" stop-color="#c58b52" stop-opacity="0.9"/>
      <stop offset="100%" stop-color="#6b4424"/>
    </linearGradient>
    <filter id="shadow" x="-30%" y="-30%" width="160%" height="160%">
      <feDropShadow dx="1.5" dy="2.2" stdDeviation="1.8" flood-color="#000" flood-opacity="0.35"/>
    </filter>
  </defs>
  <g filter="url(#shadow)" stroke="#050505" stroke-width="1.6" stroke-linecap="round" stroke-linejoin="round">
    
  <rect x="47" y="7" width="6" height="16" rx="1.2" fill="url(#bronzeGrad)"/>
  <rect x="40" y="12" width="20" height="5" rx="1.2" fill="url(#bronzeGrad)"/>
  <path d="M50 24 C40 27 34 35 34 45 C34 53 38 60 43 66 L38 72 H62 L57 66 C62 60 66 53 66 45 C66 35 60 27 50 24 Z" fill="url(#bodyGrad)"/>
  <path d="M39 34 C44 30 56 30 61 34" fill="none" stroke="url(#bronzeGrad)" stroke-width="1.5"/>
  
  <path d="M38 58 C42 63 46 64 50 60 C54 64 58 63 62 58" fill="none" stroke="url(#bronzeGrad)" stroke-width="1.7"/>
  <path d="M34 60 C38 58 41 57 45 60" fill="none" stroke="url(#bronzeGrad)" stroke-width="1.2"/>
  <path d="M66 60 C62 58 59 57 55 60" fill="none" stroke="url(#bronzeGrad)" stroke-width="1.2"/>

  
  <path d="M20 86 H80 L83 91 H17 Z" fill="url(#bodyGrad)"/>
  <rect x="21" y="80" width="58" height="7" rx="3.5" fill="url(#bronzeGrad)"/>
  <path d="M23 72 H77 L73 80 H27 Z" fill="url(#bodyGrad)"/>
  <path d="M24 72 H76" fill="none" stroke="url(#bronzeGrad)" stroke-width="2"/>
  <path d="M28 76 C38 79 62 79 72 76" fill="none" stroke="url(#bronzeGrad)" stroke-width="1.4" opacity="0.85"/>


  </g>
  <path d="M28 86 C41 88 59 88 72 86" fill="none" stroke="url(#baseGrad)" stroke-width="1.1" opacity="0.7"/>
</svg>